# xmcd CD database file
#
# Track frame offsets:
#	150
#	16588
#	39038
#	49584
#	76446
#	91029
#	108295
#	128225
#	141294
#	155557
#
# Disc length: 2423 seconds
#
# Revision: 4
# Processed by: cddbd v1.5PL3 Copyright (c) Steve Scherf et al.
# Submitted via: CDex 1.40Release
#
DISCID=6b09750a
DTITLE=Oddvar Torsheim - Tur-retur Blues
DYEAR=2000
DGENRE=Folk-Rock
TTITLE0=Mari Maria sudu-deli-dei
TTITLE1=Hei kjære dragspelar
TTITLE2=Jølsterdag
TTITLE3=Afrika tur-retur blues
TTITLE4=No vil eg by deg opp
TTITLE5=Rødbrus, kaviar og litt sumaragurk
TTITLE6=Lukk opp, lukk opp
TTITLE7=Mari campari
TTITLE8=Galningen
TTITLE9=Slik var det det gjekk meg
EXTD=YEAR: 2000 ID3G: 81
EXTT0=
EXTT1=
EXTT2=
EXTT3=
EXTT4=
EXTT5=
EXTT6=
EXTT7=
EXTT8=
EXTT9=
PLAYORDER=
